<?xml version="1.0" encoding="UTF-8"?><svg id="Layer_1" xmlns="http://www.w3.org/2000/svg" viewBox="0 0 128 16"><path d="M20.4,6.04c-.31,0-.6.08-.86.21l-6.35-3.75c0-.07.02-.14.02-.21,0-1.07-.87-1.94-1.94-1.94s-1.94.87-1.94,1.94c0,.05.01.1.01.15l-6.43,3.8c-.25-.12-.53-.19-.83-.19-1.07,0-1.94.87-1.94,1.94s.87,1.94,1.94,1.94c.23,0,.46-.05.66-.12l6.59,3.88s0,.03,0,.04c0,1.07.87,1.94,1.94,1.94s1.94-.87,1.94-1.94c0-.03,0-.07-.01-.1l6.5-3.83c.22.08.45.13.69.13,1.07,0,1.94-.87,1.94-1.94s-.87-1.94-1.94-1.94ZM11.28,1.35c.52,0,.94.42.94.94s-.42.94-.94.94-.94-.42-.94-.94.42-.94.94-.94ZM9.99,3.72c.34.31.79.5,1.29.5s.9-.18,1.24-.46l3.86,2.28-2.88,1.7c-.32-.24-.72-.38-1.15-.38-.58,0-1.09.26-1.45.66l-4.12-2.42,3.19-1.89ZM13.3,9.31c0,.52-.42.94-.94.94s-.94-.42-.94-.94.42-.94.94-.94.94.42.94.94ZM1.15,7.98c0-.52.42-.94.94-.94s.94.42.94.94-.42.94-.94.94-.94-.42-.94-.94ZM11.28,14.65c-.52,0-.94-.42-.94-.94s.42-.94.94-.94.94.42.94.94-.42.94-.94.94ZM12.6,12.3c-.35-.32-.81-.53-1.32-.53s-1.01.22-1.36.56l-6.06-3.56c.11-.24.17-.51.17-.79,0-.23-.05-.45-.12-.66l1.49-.88,5.04,2.96c.05,1.02.89,1.84,1.93,1.84.31,0,.59-.08.85-.21l.76.45-1.38.81ZM14.18,9.94c.07-.2.12-.41.12-.64,0-.12-.01-.23-.03-.34l3.53-2.08.79.47c-.07.2-.12.41-.12.63,0,.27.06.53.16.77l-3.23,1.91-1.21-.71ZM20.4,8.92c-.52,0-.94-.42-.94-.94s.42-.94.94-.94.94.42.94.94-.42.94-.94.94Z"/><path d="M28.35,9.94c.21.1,1.08.71,2.64.71,1.16,0,1.91-.39,1.91-1.12,0-.81-.7-1.14-2-1.46-1.24-.33-2.83-.91-2.83-2.69s1.55-2.27,3.09-2.27,2.43.45,3.02.83l-.55,1.13c-.47-.33-1.3-.71-2.47-.71-.91,0-1.74.25-1.74,1.03,0,.95,1.2,1.16,1.82,1.37,2.02.56,3.02,1.25,3.02,2.78,0,2.04-1.91,2.37-3.26,2.37s-2.41-.38-3.19-.85l.55-1.12Z"/><path d="M40.78,12.04c0,1.96-1.2,2.94-2.82,2.94-.98,0-1.81-.22-2.5-.64l.42-1.13c.55.34,1.26.55,2.08.55.9,0,1.52-.49,1.52-1.72v-1.14c-.35.68-.92.95-1.61.95-1.47,0-2.56-1-2.56-3.29v-3.33h1.29v3.42c0,1.48.57,2.03,1.44,2.03s1.44-.56,1.44-2.03v-3.42h1.3v6.81Z"/><path d="M42.41,5.23h1.12l.17.79c.35-.68.94-.96,1.62-.96,1.47,0,2.56.99,2.56,3.29v3.38h-1.29v-3.47c0-1.48-.57-1.98-1.44-1.98s-1.44.49-1.44,1.92v3.52h-1.3v-6.5Z"/><path d="M49.17,8.35c0-2.35,1.2-3.29,2.74-3.29s2.74.94,2.74,3.29v.21c0,2.35-1.2,3.29-2.74,3.29s-2.74-.94-2.74-3.29v-.21ZM53.35,8.35c0-1.57-.55-2.07-1.43-2.07s-1.44.49-1.44,2.07v.21c0,1.57.56,2.07,1.44,2.07s1.43-.49,1.43-2.07v-.21Z"/><path d="M56.06,5.23h1.12l.17.79c.38-.68.98-.96,1.72-.96,1.35,0,2.48.99,2.48,3.29v.26c0,2.24-1.13,3.24-2.48,3.24-.73,0-1.33-.22-1.7-.86v3.99h-1.3V5.23ZM60.24,8.35c0-1.62-.56-2.07-1.43-2.07s-1.44.49-1.44,2.03v.39c0,1.47.58,1.98,1.44,1.98s1.43-.44,1.43-2.07v-.26Z"/><path d="M62.95,3.28h1.3v1.95h2.55v1.22h-2.55v3.02c0,.77.33,1.07.82,1.13.21.03.43.01.64-.03.48-.07.9-.23,1.2-.49.14.38.29.74.42,1.12-.55.43-1.25.65-2.05.65-1.33,0-2.31-.62-2.31-2.39V3.28Z"/><path d="M68.93,2.55c.44,0,.81.35.81.81s-.36.79-.81.79-.81-.35-.81-.79.36-.81.81-.81ZM68.28,5.23h1.3v6.5h-1.3v-6.5Z"/><path d="M71.01,8.35c0-2.38,1.26-3.29,3-3.29.88,0,1.65.25,2.26.65-.17.38-.33.74-.49,1.12-.43-.29-1.05-.55-1.77-.55-1,0-1.7.51-1.7,2.07v.21c0,1.56.7,2.07,1.7,2.07.71,0,1.34-.26,1.77-.55.17.38.33.74.49,1.12-.61.4-1.38.65-2.26.65-1.74,0-3-.91-3-3.29v-.21Z"/><path d="M80.07,3.28h2.6c2.21,0,3.65,1.08,3.65,3.82v.81c0,2.74-1.44,3.82-3.65,3.82h-2.6V3.28ZM84.98,7.1c0-1.92-.83-2.57-2.3-2.57h-1.25v5.95h1.25c1.47,0,2.3-.65,2.3-2.57v-.81Z"/><path d="M92.98,8.97h-4.16v.05c0,1.04.69,1.6,1.72,1.6.81,0,1.55-.26,2-.55l.4,1.12c-.65.42-1.5.65-2.41.65-1.83,0-3.04-.96-3.04-3.24v-.27c0-2.31,1.11-3.28,2.74-3.28s2.74.96,2.74,3.28v.64ZM88.82,7.99h2.82v-.07c0-1.14-.58-1.64-1.4-1.64s-1.42.49-1.42,1.64v.07Z"/><path d="M94.45,10.08c.16.09.96.55,2.16.55.73,0,1.43-.2,1.43-.68,0-.56-.65-.81-1.48-.96-.99-.17-2.38-.47-2.38-1.99s1.34-1.94,2.61-1.94c1.18,0,1.96.36,2.44.65l-.42,1.12c-.38-.26-1.12-.55-2.03-.55-.69,0-1.31.17-1.31.68,0,.62.87.68,1.34.75,1.77.33,2.54,1.05,2.54,2.28,0,1.48-1.47,1.86-2.74,1.86-1.09,0-1.96-.29-2.57-.65l.42-1.12Z"/><path d="M101.43,2.55c.44,0,.81.35.81.81s-.36.79-.81.79-.81-.35-.81-.79.36-.81.81-.81ZM100.78,5.23h1.3v6.5h-1.3v-6.5Z"/><path d="M109,12.12c0,1.87-1.2,2.86-2.82,2.86-.97,0-1.82-.22-2.5-.64.14-.38.27-.75.42-1.13.53.34,1.26.55,2.08.55.9,0,1.52-.51,1.52-1.64v-1.18c-.38.66-.99.91-1.72.91-1.34,0-2.47-1-2.47-3.29v-.21c0-2.17,1.03-3.18,2.26-3.28.22-.01.44,0,.65.04.55.09.99.38,1.29.91.05-.26.1-.53.16-.79h1.13v6.89ZM104.81,8.56c0,1.68.57,2.12,1.44,2.12s1.44-.51,1.44-2.03v-.34c0-1.53-.58-2.03-1.44-2.03s-1.44.44-1.44,2.07v.21Z"/><path d="M110.64,5.23h1.12l.17.79c.35-.68.94-.96,1.62-.96,1.47,0,2.56.99,2.56,3.29v3.38h-1.29v-3.47c0-1.48-.57-1.98-1.44-1.98s-1.44.49-1.44,1.92v3.52h-1.3v-6.5Z"/><path d="M122.88,8.97h-4.16v.05c0,1.04.69,1.6,1.72,1.6.81,0,1.55-.26,2-.55l.4,1.12c-.65.42-1.5.65-2.41.65-1.83,0-3.04-.96-3.04-3.24v-.27c0-2.31,1.11-3.28,2.74-3.28s2.74.96,2.74,3.28v.64ZM118.72,7.99h2.82v-.07c0-1.14-.58-1.64-1.4-1.64s-1.42.49-1.42,1.64v.07Z"/><path d="M124.01,5.23h1.11l.16.75c.3-.66.75-.92,1.31-.92.48,0,.91.07,1.26.34l-.49,1.13c-.22-.17-.49-.25-.86-.25-.72,0-1.2.51-1.2,2.07v3.38h-1.29v-6.5Z"/></svg>